# xmcd CD database file
#
# Track frame offsets:
#	150
#	19001
#	33244
#	51347
#	66565
#	82534
#	97925
#	114721
#	129158
#	147675
#	163543
#	178899
#	207304
#
# Disc length: 3162 seconds
#
# Revision: 1
# Processed by: cddbd v1.5.2PL0 Copyright (c) Steve Scherf et al.
# Submitted via: CDex 1.70beta2
#
DISCID=b10c580d
DTITLE=Anis - Rodéo Boulevard
DYEAR=2008
DGENRE=Jazz
TTITLE0=José
TTITLE1=Rodéo Bld.
TTITLE2=Dans tes yeux
TTITLE3=La trentaine
TTITLE4=Dieu protège nos os
TTITLE5=O mon amour
TTITLE6=Hagard du nord
TTITLE7=L'eau
TTITLE8=Swing javanaise
TTITLE9=Lisboa
TTITLE10=A la ramasse
TTITLE11=Tout ira bien
TTITLE12=piste cachée
EXTD=YEAR: 2008
EXTT0=
EXTT1=
EXTT2=
EXTT3=
EXTT4=
EXTT5=
EXTT6=
EXTT7=
EXTT8=
EXTT9=
EXTT10=
EXTT11=
EXTT12=
PLAYORDER=
